#N canvas 80 70 794 647 10;
#X obj 90 34 ctlin;
#X msg 45 235 send /korgk/vol/\$1/vol \$2;
#X obj 45 210 pack f f;
#X obj 6 118 moses 2;
#X obj 45 164 + 5;
#X obj 45 141 moses 8;
#X obj 84 164 moses 9;
#X obj 84 186 + 4;
#X obj 117 57 select 1;
#X text 169 56 channel 1 is default. not using anything else so don't
need to filter it yet;
#X obj 213 185 moses 14;
#X obj 258 253 pack f f;
#X obj 258 210 moses 20;
#X msg 258 273 send /korgk/pan/\$1/pan \$2;
#X obj 258 233 - 7;
#X obj 433 252 moses 23;
#X obj 436 333 - 16;
#X obj 436 353 pack f f;
#X msg 436 375 send /korgk/mute/\$1/mute \$2;
#X obj 478 285 moses 29;
#X obj 616 423 pack f f;
#X obj 613 322 moses 33;
#X obj 658 355 moses 39;
#X obj 616 403 - 26;
#X msg 616 445 send /korgk/rev/\$1/rev \$2;
#X obj 45 589 packOSC;
#X obj 45 621 s localOSC;
#X obj 213 618 print UNKNOWNmidiCTL;
#X obj 540 47 nbx 5 14 0 1e+37 0 0 empty CCIwet-3 wet 0 -8 0 8 -262144
-1 -1 0 256;
#X obj 540 152 s slOSCout;
#X obj 543 64 hsl 50 10 0 1 0 0 empty empty empty 8 -8 0 8 -258113
-1 -1 0 1;
#X msg 540 122 send /sl/-3/set wet \$1;
#X obj 609 51 hsl 50 10 0 1 0 0 empty CCIpan_1 pan_1 8 -8 0 8 -262144
-1 -1 0 1;
#X obj 609 64 hsl 50 10 0 1 0 0 empty empty empty 8 -8 0 8 -258113
-1 -1 0 1;
#X msg 606 89 send /sl/-3/set pan_1 \$1;
#X obj 623 172 bng 20 250 50 0 empty empty MUTE 22 10 0 10 -258113
-1 -1;
#X msg 623 197 send /sl/-3/hit mute;
#X obj 540 175 tgl 15 0 empty empty reverse 17 8 0 8 -258113 -1 -1
0 1;
#X msg 540 223 send /sl/-3/down reverse;
#X msg 540 245 send /sl/-3/up reverse;
#X obj 540 201 select 1 0;
#X connect 0 0 2 1;
#X connect 0 0 11 1;
#X connect 0 0 17 1;
#X connect 0 0 20 1;
#X connect 0 1 3 0;
#X connect 0 2 8 0;
#X connect 1 0 25 0;
#X connect 2 0 1 0;
#X connect 3 0 27 0;
#X connect 3 1 5 0;
#X connect 4 0 2 0;
#X connect 5 0 4 0;
#X connect 5 1 6 0;
#X connect 6 0 7 0;
#X connect 6 1 10 0;
#X connect 7 0 2 0;
#X connect 10 0 27 0;
#X connect 10 1 12 0;
#X connect 11 0 13 0;
#X connect 12 0 14 0;
#X connect 12 1 15 0;
#X connect 13 0 25 0;
#X connect 14 0 11 0;
#X connect 15 0 27 0;
#X connect 15 1 19 0;
#X connect 16 0 17 0;
#X connect 17 0 18 0;
#X connect 18 0 25 0;
#X connect 19 0 16 0;
#X connect 19 1 21 0;
#X connect 20 0 24 0;
#X connect 21 0 27 0;
#X connect 21 1 22 0;
#X connect 22 0 23 0;
#X connect 22 1 27 0;
#X connect 23 0 20 0;
#X connect 24 0 25 0;
#X connect 25 0 26 0;
#X connect 30 0 31 0;
#X connect 31 0 29 0;
#X connect 33 0 34 0;
#X connect 34 0 29 0;
#X connect 35 0 36 0;
#X connect 37 0 40 0;
#X connect 40 0 38 0;
#X connect 40 1 39 0;
