#N canvas 0 522 174 140 10;
#N canvas 40 45 1191 666 pdkkInterfaceGOP-\$0 0;
#X obj 44 14 ctlin;
#X obj 29 539 pack f f;
#X obj 773 538 pack f f;
#X msg 29 559 send /sl/\$1/set wet \$2;
#X obj 316 137 / 127;
#X msg 773 558 send /sl/\$1/set pan_1 \$2;
#X obj 140 105 print midiIN;
#N canvas 49 382 537 270 processMute-\$0 0;
#X obj 62 19 inlet;
#X obj 62 237 outlet;
#X obj 108 19 inlet;
#X obj 62 172 pack f f;
#X obj 216 172 pack f f;
#X msg 62 193 send /sl/\$2/hit mute_off;
#X msg 216 193 send /sl/\$2/hit mute_on;
#X obj 62 140 route 0 1;
#X obj 62 109 pack f f;
#X obj 62 40 - 3;
#X connect 0 0 9 0;
#X connect 2 0 8 0;
#X connect 3 0 5 0;
#X connect 4 0 6 0;
#X connect 5 0 1 0;
#X connect 6 0 1 0;
#X connect 7 0 3 0;
#X connect 7 1 4 0;
#X connect 8 0 7 0;
#X connect 9 0 3 1;
#X connect 9 0 4 1;
#X connect 9 0 8 1;
#X restore 538 27 pd processMute-\$0;
#X obj 140 80 spigot;
#X obj 137 50 tgl 15 0 empty empty dump_midi 17 10 0 6 -262144 -1 -1
0 1;
#N canvas 644 169 606 284 processRev-\$0 0;
#X obj 72 29 inlet;
#X obj 72 254 outlet;
#X obj 328 29 inlet;
#X msg 72 210 send /sl/\$2/up reverse;
#X msg 226 210 send /sl/\$2/down reverse;
#X obj 72 182 pack f f;
#X obj 226 182 pack f f;
#X obj 72 150 route 0 1;
#X obj 72 119 pack f f;
#X obj 72 50 - 12;
#X connect 0 0 9 0;
#X connect 2 0 8 0;
#X connect 3 0 1 0;
#X connect 4 0 1 0;
#X connect 5 0 3 0;
#X connect 6 0 4 0;
#X connect 7 0 5 0;
#X connect 7 1 6 0;
#X connect 8 0 7 0;
#X connect 9 0 5 1;
#X connect 9 0 6 1;
#X connect 9 0 8 1;
#X restore 537 52 pd processRev-\$0;
#X obj 29 41 pack f f f;
#X obj 29 84 route 1;
#X obj 29 105 unpack f f;
#X msg 29 63 \$3 \$2 \$1;
#X obj 29 138 moses 7;
#X obj 68 158 moses 10;
#X obj 113 178 moses 16;
#X obj 160 198 moses 19;
#X obj 205 218 moses 25;
#X obj 250 238 moses 28;
#X obj 295 258 moses 34;
#X obj 340 278 moses 37;
#X text 134 13 korgKontrol;
#X text 79 83 channel 1;
#X obj 29 517 + 6;
#X obj 773 518 - 21;
#X obj 171 558 pack f f;
#X obj 325 538 pack f f;
#X msg 171 579 send /sl/\$2/hit mute_off;
#X msg 325 559 send /sl/\$2/hit mute_on;
#X obj 171 526 route 0 1;
#X obj 171 485 pack f f;
#X obj 171 462 - 3;
#X msg 474 579 send /sl/\$2/up reverse;
#X msg 618 559 send /sl/\$2/down reverse;
#X obj 474 558 pack f f;
#X obj 618 538 pack f f;
#X obj 474 526 route 0 1;
#X obj 474 485 pack f f;
#X obj 474 462 - 12;
#X msg 171 505 \$2 \$1;
#X msg 474 505 \$2 \$1;
#X obj 29 629 s slOSCout;
#X obj 936 368 pack f f;
#X obj 385 298 moses 47;
#X obj 430 319 moses 48;
#X obj 475 340 moses 49;
#X msg 936 389 \$2 \$1;
#X obj 936 410 route 1;
#X obj 1041 433 bng 20 250 50 0 empty empty NEXT_LOOP 22 10 0 10 -258113
-1 -1;
#X obj 936 433 bng 20 250 50 0 empty empty PREV_LOOP 22 10 0 10 -258113
-1 -1;
#X obj 951 497 nbx 3 14 0 512 0 0 empty SLselected_loop_num selected_loop
0 -8 0 8 -262144 -1 -1 0 256;
#X msg 936 459 -1;
#X msg 1041 459 1;
#X obj 936 517 +;
#X msg 936 589 send /set selected_loop_num \$1;
#X obj 936 540 moses 7;
#X obj 975 563 moses 13;
#X obj 1041 368 pack f f;
#X msg 1041 389 \$2 \$1;
#X obj 1041 410 route 1;
#X connect 0 0 11 0;
#X connect 0 1 11 1;
#X connect 0 2 11 2;
#X connect 1 0 3 0;
#X connect 2 0 5 0;
#X connect 3 0 43 0;
#X connect 4 0 1 1;
#X connect 4 0 2 1;
#X connect 4 0 32 1;
#X connect 4 0 39 1;
#X connect 4 0 44 1;
#X connect 4 0 59 1;
#X connect 5 0 43 0;
#X connect 8 0 6 0;
#X connect 9 0 8 1;
#X connect 11 0 14 0;
#X connect 12 0 13 0;
#X connect 13 0 15 0;
#X connect 13 1 4 0;
#X connect 14 0 12 0;
#X connect 14 0 8 0;
#X connect 15 0 25 0;
#X connect 15 1 16 0;
#X connect 16 1 17 0;
#X connect 17 0 33 0;
#X connect 17 1 18 0;
#X connect 18 1 19 0;
#X connect 19 0 40 0;
#X connect 19 1 20 0;
#X connect 20 1 21 0;
#X connect 21 0 26 0;
#X connect 21 1 22 0;
#X connect 22 1 45 0;
#X connect 25 0 1 0;
#X connect 26 0 2 0;
#X connect 27 0 29 0;
#X connect 28 0 30 0;
#X connect 29 0 43 0;
#X connect 30 0 43 0;
#X connect 31 0 27 0;
#X connect 31 1 28 0;
#X connect 32 0 41 0;
#X connect 33 0 27 1;
#X connect 33 0 28 1;
#X connect 33 0 32 0;
#X connect 34 0 43 0;
#X connect 35 0 43 0;
#X connect 36 0 34 0;
#X connect 37 0 35 0;
#X connect 38 0 36 0;
#X connect 38 1 37 0;
#X connect 39 0 42 0;
#X connect 40 0 36 1;
#X connect 40 0 37 1;
#X connect 40 0 39 0;
#X connect 41 0 31 0;
#X connect 42 0 38 0;
#X connect 44 0 48 0;
#X connect 45 1 46 0;
#X connect 46 0 44 0;
#X connect 46 1 47 0;
#X connect 47 0 59 0;
#X connect 48 0 49 0;
#X connect 49 0 51 0;
#X connect 50 0 54 0;
#X connect 51 0 53 0;
#X connect 52 0 55 1;
#X connect 53 0 55 0;
#X connect 54 0 55 0;
#X connect 55 0 57 0;
#X connect 56 0 43 0;
#X connect 57 1 58 0;
#X connect 58 0 56 0;
#X connect 59 0 60 0;
#X connect 60 0 61 0;
#X connect 61 0 50 0;
#X coords 0 -1 1 1 85 60 2 125 10;
#X restore 46 36 pd pdkkInterfaceGOP-\$0;
