#N canvas 80 70 883 647 10;
#X obj 90 14 ctlin;
#X obj 45 479 pack f f;
#X obj 6 178 moses 2;
#X obj 45 456 + 5;
#X obj 45 198 moses 8;
#X obj 84 218 moses 9;
#X obj 84 456 + 4;
#X text 97 76 channel 1 is default. not using anything else so don't
need to filter it yet;
#X obj 123 238 moses 14;
#X obj 188 478 pack f f;
#X obj 168 258 moses 20;
#X obj 188 458 - 7;
#X obj 213 278 moses 23;
#X obj 258 298 moses 29;
#X obj 303 318 moses 33;
#X obj 348 338 moses 39;
#X obj 581 498 print UNKNOWNmidiCTL;
#X msg 45 499 send /sl/\$1/set wet \$2;
#X obj 90 167 / 127;
#X obj 45 609 print OSCout;
#X msg 188 498 send /sl/\$1/set pan_1 \$2;
#X obj 525 175 print midiIN;
#N canvas 144 225 537 463 processMute-\$0 0;
#X obj 62 40 - 16;
#X obj 62 19 inlet;
#X obj 62 424 outlet;
#X obj 318 19 inlet;
#X obj 272 246 tgl 15 0 empty empty empty 17 7 0 10 -262144 -1 -1 0
1;
#X obj 272 267 select 0 1;
#X obj 62 359 pack f f;
#X obj 216 359 pack f f;
#X msg 62 380 send /sl/\$2/hit mute_off;
#X msg 216 380 send /sl/\$2/hit mute_on;
#X obj 62 159 + 1;
#X obj 22 160 float;
#X obj 62 73 pack f f;
#X obj 62 97 route 7 8 9 10 11 12;
#X obj 22 141 bng 15 250 50 0 empty empty empty 17 7 0 10 -262144 -1
-1;
#X obj 132 246 tgl 15 0 empty empty empty 17 7 0 10 -262144 -1 -1 0
1;
#X obj 132 267 select 0 1;
#X obj 202 246 tgl 15 0 empty empty empty 17 7 0 10 -262144 -1 -1 0
1;
#X obj 202 267 select 0 1;
#X obj 62 267 select 0 1;
#X obj 342 246 tgl 15 0 empty empty empty 17 7 0 10 -262144 -1 -1 0
1;
#X obj 342 267 select 0 1;
#X obj 412 246 tgl 15 0 empty empty empty 17 7 0 10 -262144 -1 -1 0
1;
#X obj 412 267 select 0 1;
#X obj 62 246 tgl 15 0 empty empty empty 17 7 0 10 -262144 -1 -1 0
1;
#X obj 62 224 bng 15 250 50 0 empty empty empty 17 7 0 10 -262144 -1
-1;
#X obj 62 203 select 0;
#X obj 132 159 + 1;
#X obj 92 160 float;
#X obj 92 141 bng 15 250 50 0 empty empty empty 17 7 0 10 -262144 -1
-1;
#X obj 132 224 bng 15 250 50 0 empty empty empty 17 7 0 10 -262144
-1 -1;
#X obj 132 203 select 0;
#X obj 202 159 + 1;
#X obj 162 160 float;
#X obj 162 141 bng 15 250 50 0 empty empty empty 17 7 0 10 -262144
-1 -1;
#X obj 202 224 bng 15 250 50 0 empty empty empty 17 7 0 10 -262144
-1 -1;
#X obj 202 203 select 0;
#X obj 272 159 + 1;
#X obj 232 160 float;
#X obj 232 141 bng 15 250 50 0 empty empty empty 17 7 0 10 -262144
-1 -1;
#X obj 272 224 bng 15 250 50 0 empty empty empty 17 7 0 10 -262144
-1 -1;
#X obj 272 203 select 0;
#X obj 342 159 + 1;
#X obj 302 160 float;
#X obj 302 141 bng 15 250 50 0 empty empty empty 17 7 0 10 -262144
-1 -1;
#X obj 342 224 bng 15 250 50 0 empty empty empty 17 7 0 10 -262144
-1 -1;
#X obj 342 203 select 0;
#X obj 412 159 + 1;
#X obj 372 160 float;
#X obj 372 141 bng 15 250 50 0 empty empty empty 17 7 0 10 -262144
-1 -1;
#X obj 412 224 bng 15 250 50 0 empty empty empty 17 7 0 10 -262144
-1 -1;
#X obj 412 203 select 0;
#X obj 62 181 mod 2;
#X obj 132 181 mod 2;
#X obj 202 181 mod 2;
#X obj 272 181 mod 2;
#X obj 342 181 mod 2;
#X obj 412 181 mod 2;
#X connect 0 0 12 0;
#X connect 0 0 6 1;
#X connect 0 0 7 1;
#X connect 1 0 0 0;
#X connect 3 0 12 1;
#X connect 4 0 5 0;
#X connect 5 0 6 0;
#X connect 5 1 7 0;
#X connect 6 0 8 0;
#X connect 7 0 9 0;
#X connect 8 0 2 0;
#X connect 9 0 2 0;
#X connect 10 0 11 1;
#X connect 10 0 52 0;
#X connect 11 0 10 0;
#X connect 12 0 13 0;
#X connect 13 0 14 0;
#X connect 13 1 29 0;
#X connect 13 2 34 0;
#X connect 13 3 39 0;
#X connect 13 4 44 0;
#X connect 13 5 49 0;
#X connect 14 0 11 0;
#X connect 15 0 16 0;
#X connect 16 0 6 0;
#X connect 16 1 7 0;
#X connect 17 0 18 0;
#X connect 18 0 6 0;
#X connect 18 1 7 0;
#X connect 19 0 6 0;
#X connect 19 1 7 0;
#X connect 20 0 21 0;
#X connect 21 0 6 0;
#X connect 21 1 7 0;
#X connect 22 0 23 0;
#X connect 23 0 6 0;
#X connect 23 1 7 0;
#X connect 24 0 19 0;
#X connect 25 0 24 0;
#X connect 26 0 25 0;
#X connect 27 0 28 1;
#X connect 27 0 53 0;
#X connect 28 0 27 0;
#X connect 29 0 28 0;
#X connect 30 0 15 0;
#X connect 31 0 30 0;
#X connect 32 0 33 1;
#X connect 32 0 54 0;
#X connect 33 0 32 0;
#X connect 34 0 33 0;
#X connect 35 0 17 0;
#X connect 36 0 35 0;
#X connect 37 0 38 1;
#X connect 37 0 55 0;
#X connect 38 0 37 0;
#X connect 39 0 38 0;
#X connect 40 0 4 0;
#X connect 41 0 40 0;
#X connect 42 0 43 1;
#X connect 42 0 56 0;
#X connect 43 0 42 0;
#X connect 44 0 43 0;
#X connect 45 0 20 0;
#X connect 46 0 45 0;
#X connect 47 0 48 1;
#X connect 47 0 57 0;
#X connect 48 0 47 0;
#X connect 49 0 48 0;
#X connect 50 0 22 0;
#X connect 51 0 50 0;
#X connect 52 0 26 0;
#X connect 53 0 31 0;
#X connect 54 0 36 0;
#X connect 55 0 41 0;
#X connect 56 0 46 0;
#X connect 57 0 51 0;
#X restore 344 498 pd processMute-\$0;
#X obj 525 150 spigot;
#X obj 558 132 tgl 15 0 empty empty empty 17 7 0 10 -262144 -1 -1 1
1;
#N canvas 644 169 606 473 processRev-\$0 0;
#X obj 72 29 inlet;
#X obj 72 434 outlet;
#X obj 328 29 inlet;
#X obj 282 256 tgl 15 0 empty empty empty 17 7 0 10 -262144 -1 -1 0
1;
#X obj 282 277 select 0 1;
#X obj 72 369 pack f f;
#X obj 226 369 pack f f;
#X obj 72 169 + 1;
#X obj 32 170 float;
#X obj 72 83 pack f f;
#X obj 72 107 route 7 8 9 10 11 12;
#X obj 32 151 bng 15 250 50 0 empty empty empty 17 7 0 10 -262144 -1
-1;
#X obj 142 256 tgl 15 0 empty empty empty 17 7 0 10 -262144 -1 -1 0
1;
#X obj 142 277 select 0 1;
#X obj 212 256 tgl 15 0 empty empty empty 17 7 0 10 -262144 -1 -1 0
1;
#X obj 212 277 select 0 1;
#X obj 72 277 select 0 1;
#X obj 352 256 tgl 15 0 empty empty empty 17 7 0 10 -262144 -1 -1 0
1;
#X obj 352 277 select 0 1;
#X obj 422 256 tgl 15 0 empty empty empty 17 7 0 10 -262144 -1 -1 0
1;
#X obj 422 277 select 0 1;
#X obj 72 256 tgl 15 0 empty empty empty 17 7 0 10 -262144 -1 -1 0
1;
#X obj 72 234 bng 15 250 50 0 empty empty empty 17 7 0 10 -262144 -1
-1;
#X obj 72 213 select 0;
#X obj 142 169 + 1;
#X obj 102 170 float;
#X obj 102 151 bng 15 250 50 0 empty empty empty 17 7 0 10 -262144
-1 -1;
#X obj 142 234 bng 15 250 50 0 empty empty empty 17 7 0 10 -262144
-1 -1;
#X obj 142 213 select 0;
#X obj 212 169 + 1;
#X obj 172 170 float;
#X obj 172 151 bng 15 250 50 0 empty empty empty 17 7 0 10 -262144
-1 -1;
#X obj 212 234 bng 15 250 50 0 empty empty empty 17 7 0 10 -262144
-1 -1;
#X obj 212 213 select 0;
#X obj 282 169 + 1;
#X obj 242 170 float;
#X obj 242 151 bng 15 250 50 0 empty empty empty 17 7 0 10 -262144
-1 -1;
#X obj 282 234 bng 15 250 50 0 empty empty empty 17 7 0 10 -262144
-1 -1;
#X obj 282 213 select 0;
#X obj 352 169 + 1;
#X obj 312 170 float;
#X obj 312 151 bng 15 250 50 0 empty empty empty 17 7 0 10 -262144
-1 -1;
#X obj 352 234 bng 15 250 50 0 empty empty empty 17 7 0 10 -262144
-1 -1;
#X obj 352 213 select 0;
#X obj 422 169 + 1;
#X obj 382 170 float;
#X obj 382 151 bng 15 250 50 0 empty empty empty 17 7 0 10 -262144
-1 -1;
#X obj 422 234 bng 15 250 50 0 empty empty empty 17 7 0 10 -262144
-1 -1;
#X obj 422 213 select 0;
#X obj 72 50 - 26;
#X msg 72 390 send /sl/\$2/up reverse;
#X msg 226 390 send /sl/\$2/down reverse;
#X obj 72 191 mod 2;
#X obj 142 191 mod 2;
#X obj 212 191 mod 2;
#X obj 282 191 mod 2;
#X obj 352 191 mod 2;
#X obj 422 191 mod 2;
#X connect 0 0 49 0;
#X connect 2 0 9 1;
#X connect 3 0 4 0;
#X connect 4 0 5 0;
#X connect 4 1 6 0;
#X connect 5 0 50 0;
#X connect 6 0 51 0;
#X connect 7 0 8 1;
#X connect 7 0 52 0;
#X connect 8 0 7 0;
#X connect 9 0 10 0;
#X connect 10 0 11 0;
#X connect 10 1 26 0;
#X connect 10 2 31 0;
#X connect 10 3 36 0;
#X connect 10 4 41 0;
#X connect 10 5 46 0;
#X connect 11 0 8 0;
#X connect 12 0 13 0;
#X connect 13 0 5 0;
#X connect 13 1 6 0;
#X connect 14 0 15 0;
#X connect 15 0 5 0;
#X connect 15 1 6 0;
#X connect 16 0 5 0;
#X connect 16 1 6 0;
#X connect 17 0 18 0;
#X connect 18 0 5 0;
#X connect 18 1 6 0;
#X connect 19 0 20 0;
#X connect 20 0 5 0;
#X connect 20 1 6 0;
#X connect 21 0 16 0;
#X connect 22 0 21 0;
#X connect 23 0 22 0;
#X connect 24 0 25 1;
#X connect 24 0 53 0;
#X connect 25 0 24 0;
#X connect 26 0 25 0;
#X connect 27 0 12 0;
#X connect 28 0 27 0;
#X connect 29 0 30 1;
#X connect 29 0 54 0;
#X connect 30 0 29 0;
#X connect 31 0 30 0;
#X connect 32 0 14 0;
#X connect 33 0 32 0;
#X connect 34 0 35 1;
#X connect 34 0 55 0;
#X connect 35 0 34 0;
#X connect 36 0 35 0;
#X connect 37 0 3 0;
#X connect 38 0 37 0;
#X connect 39 0 40 1;
#X connect 39 0 56 0;
#X connect 40 0 39 0;
#X connect 41 0 40 0;
#X connect 42 0 17 0;
#X connect 43 0 42 0;
#X connect 44 0 45 1;
#X connect 44 0 57 0;
#X connect 45 0 44 0;
#X connect 46 0 45 0;
#X connect 47 0 19 0;
#X connect 48 0 47 0;
#X connect 49 0 9 0;
#X connect 49 0 5 1;
#X connect 49 0 6 1;
#X connect 50 0 1 0;
#X connect 51 0 1 0;
#X connect 52 0 23 0;
#X connect 53 0 28 0;
#X connect 54 0 33 0;
#X connect 55 0 38 0;
#X connect 56 0 43 0;
#X connect 57 0 48 0;
#X restore 454 498 pd processRev-\$0;
#X obj 29 41 pack f f f;
#X obj 29 84 route 1;
#X obj 29 105 unpack f f;
#X msg 29 63 \$3 \$2 \$1;
#X obj 237 578 metro 100;
#X obj 67 549 spigot;
#X connect 0 0 26 0;
#X connect 0 1 26 1;
#X connect 0 2 26 2;
#X connect 1 0 17 0;
#X connect 2 0 16 0;
#X connect 2 1 4 0;
#X connect 3 0 1 0;
#X connect 4 0 3 0;
#X connect 4 1 5 0;
#X connect 5 0 6 0;
#X connect 5 1 8 0;
#X connect 6 0 1 0;
#X connect 8 0 16 0;
#X connect 8 1 10 0;
#X connect 9 0 20 0;
#X connect 10 0 11 0;
#X connect 10 1 12 0;
#X connect 11 0 9 0;
#X connect 12 0 16 0;
#X connect 12 1 13 0;
#X connect 13 0 22 0;
#X connect 13 1 14 0;
#X connect 14 0 16 0;
#X connect 14 1 15 0;
#X connect 15 0 25 0;
#X connect 15 1 16 0;
#X connect 17 0 19 0;
#X connect 18 0 1 1;
#X connect 18 0 9 1;
#X connect 18 0 22 1;
#X connect 18 0 25 1;
#X connect 20 0 19 0;
#X connect 22 0 19 0;
#X connect 23 0 21 0;
#X connect 24 0 23 1;
#X connect 25 0 19 0;
#X connect 26 0 29 0;
#X connect 27 0 28 0;
#X connect 28 0 2 0;
#X connect 28 1 18 0;
#X connect 29 0 27 0;
#X connect 29 0 23 0;
