#N canvas 0 522 174 140 10;
#N canvas 40 45 1191 666 pdkkInterfaceGOP-\$0 1;
#X obj 44 14 ctlin;
#X obj 29 539 pack f f;
#X obj 773 538 pack f f;
#X msg 29 559 send /sl/\$1/set wet \$2;
#X obj 316 165 / 127;
#X msg 773 558 send /sl/\$1/set pan_1 \$2;
#X obj 140 105 print midiIN;
#X obj 140 80 spigot;
#X obj 137 50 tgl 15 0 empty empty dump_midi 17 10 0 6 -262144 -1 -1
1 1;
#X obj 29 41 pack f f f;
#X obj 29 84 route 1;
#X obj 29 105 unpack f f;
#X msg 29 63 \$3 \$2 \$1;
#X obj 29 126 moses 7;
#X obj 152 186 moses 16;
#X obj 242 226 moses 19;
#X obj 287 246 moses 25;
#X obj 512 348 moses 37;
#X text 134 13 korgKontrol;
#X text 79 83 channel 1;
#X obj 29 517 + 6;
#X obj 773 518 - 21;
#X obj 171 558 pack f f;
#X obj 325 538 pack f f;
#X msg 171 579 send /sl/\$2/hit mute_off;
#X msg 325 559 send /sl/\$2/hit mute_on;
#X obj 171 526 route 0 1;
#X obj 171 485 pack f f;
#X obj 171 462 - 3;
#X msg 474 579 send /sl/\$2/up reverse;
#X msg 618 559 send /sl/\$2/down reverse;
#X obj 474 558 pack f f;
#X obj 618 538 pack f f;
#X obj 474 526 route 0 1;
#X obj 474 485 pack f f;
#X obj 474 462 - 12;
#X msg 171 505 \$2 \$1;
#X msg 474 505 \$2 \$1;
#X obj 29 629 s slOSCout;
#X obj 936 368 pack f f;
#X obj 557 368 moses 47;
#X obj 602 389 moses 48;
#X obj 647 410 moses 49;
#X msg 936 389 \$2 \$1;
#X obj 936 410 route 1;
#X obj 1041 433 bng 20 250 50 0 empty empty NEXT_LOOP 22 10 0 10 -258113
-1 -1;
#X obj 936 433 bng 20 250 50 0 empty empty PREV_LOOP 22 10 0 10 -258113
-1 -1;
#X obj 951 497 nbx 3 14 0 512 0 0 empty SLselected_loop_num selected_loop
0 -8 0 8 -262144 -1 -1 7 256;
#X msg 936 459 -1;
#X msg 1041 459 1;
#X obj 936 517 +;
#X msg 936 589 send /set selected_loop_num \$1;
#X obj 936 540 moses 7;
#X obj 975 563 moses 13;
#X obj 1041 368 pack f f;
#X msg 1041 389 \$2 \$1;
#X obj 1041 410 route 1;
#X obj 107 166 moses 10;
#X obj 68 146 moses 9;
#X obj 107 187 - 9;
#X obj 197 206 moses 18;
#X obj 242 250 - 15;
#X obj 377 287 moses 28;
#X obj 332 266 moses 27;
#X obj 377 309 - 15;
#X obj 422 308 moses 34;
#X obj 467 328 moses 36;
#X obj 512 368 - 15;
#X connect 0 0 9 0;
#X connect 0 1 9 1;
#X connect 0 2 9 2;
#X connect 1 0 3 0;
#X connect 2 0 5 0;
#X connect 3 0 38 0;
#X connect 4 0 1 1;
#X connect 4 0 2 1;
#X connect 4 0 27 1;
#X connect 4 0 34 1;
#X connect 4 0 39 1;
#X connect 4 0 54 1;
#X connect 5 0 38 0;
#X connect 7 0 6 0;
#X connect 8 0 7 1;
#X connect 9 0 12 0;
#X connect 10 0 11 0;
#X connect 11 0 13 0;
#X connect 11 1 4 0;
#X connect 12 0 10 0;
#X connect 12 0 7 0;
#X connect 13 0 20 0;
#X connect 13 1 58 0;
#X connect 14 0 28 0;
#X connect 14 1 60 0;
#X connect 15 0 61 0;
#X connect 15 1 16 0;
#X connect 16 0 35 0;
#X connect 16 1 63 0;
#X connect 17 0 67 0;
#X connect 17 1 40 0;
#X connect 20 0 1 0;
#X connect 21 0 2 0;
#X connect 22 0 24 0;
#X connect 23 0 25 0;
#X connect 24 0 38 0;
#X connect 25 0 38 0;
#X connect 26 0 22 0;
#X connect 26 1 23 0;
#X connect 27 0 36 0;
#X connect 28 0 22 1;
#X connect 28 0 23 1;
#X connect 28 0 27 0;
#X connect 29 0 38 0;
#X connect 30 0 38 0;
#X connect 31 0 29 0;
#X connect 32 0 30 0;
#X connect 33 0 31 0;
#X connect 33 1 32 0;
#X connect 34 0 37 0;
#X connect 35 0 31 1;
#X connect 35 0 32 1;
#X connect 35 0 34 0;
#X connect 36 0 26 0;
#X connect 37 0 33 0;
#X connect 39 0 43 0;
#X connect 40 1 41 0;
#X connect 41 0 39 0;
#X connect 41 1 42 0;
#X connect 42 0 54 0;
#X connect 43 0 44 0;
#X connect 44 0 46 0;
#X connect 45 0 49 0;
#X connect 46 0 48 0;
#X connect 47 0 50 1;
#X connect 48 0 50 0;
#X connect 49 0 50 0;
#X connect 50 0 52 0;
#X connect 51 0 38 0;
#X connect 52 1 53 0;
#X connect 53 0 51 0;
#X connect 54 0 55 0;
#X connect 55 0 56 0;
#X connect 56 0 45 0;
#X connect 57 0 59 0;
#X connect 57 1 14 0;
#X connect 58 1 57 0;
#X connect 59 0 1 0;
#X connect 60 1 15 0;
#X connect 61 0 28 0;
#X connect 62 0 64 0;
#X connect 62 1 65 0;
#X connect 63 1 62 0;
#X connect 64 0 35 0;
#X connect 65 0 21 0;
#X connect 65 1 66 0;
#X connect 66 1 17 0;
#X connect 67 0 21 0;
#X coords 0 -1 1 1 85 60 2 125 10;
#X restore 46 36 pd pdkkInterfaceGOP-\$0;
