#N canvas 395 25 654 571 10;
#X obj 90 14 ctlin;
#X obj 45 409 pack f f;
#X text 97 76 channel 1 is default. not using anything else so don't
need to filter it yet;
#X obj 402 408 pack f f;
#X msg 45 429 send /sl/\$1/set wet \$2;
#X obj 90 167 / 127;
#X obj 45 539 print OSCout;
#X msg 402 428 send /sl/\$1/set pan_1 \$2;
#X obj 134 166 print midiIN;
#N canvas 290 237 537 270 processMute-\$0 0;
#X obj 62 19 inlet;
#X obj 62 237 outlet;
#X obj 108 19 inlet;
#X obj 62 172 pack f f;
#X obj 216 172 pack f f;
#X msg 62 193 send /sl/\$2/hit mute_off;
#X msg 216 193 send /sl/\$2/hit mute_on;
#X obj 62 40 - 9;
#X obj 62 140 route 0 1;
#X obj 62 109 pack f f;
#X connect 0 0 7 0;
#X connect 2 0 9 0;
#X connect 3 0 5 0;
#X connect 4 0 6 0;
#X connect 5 0 1 0;
#X connect 6 0 1 0;
#X connect 7 0 3 1;
#X connect 7 0 4 1;
#X connect 7 0 9 1;
#X connect 8 0 3 0;
#X connect 8 1 4 0;
#X connect 9 0 8 0;
#X restore 188 429 pd processMute-\$0;
#X obj 134 141 spigot;
#X obj 167 123 tgl 15 0 empty empty empty 17 7 0 10 -262144 -1 -1 0
1;
#N canvas 644 169 606 284 processRev-\$0 0;
#X obj 72 29 inlet;
#X obj 72 254 outlet;
#X obj 328 29 inlet;
#X msg 72 210 send /sl/\$2/up reverse;
#X msg 226 210 send /sl/\$2/down reverse;
#X obj 72 182 pack f f;
#X obj 226 182 pack f f;
#X obj 72 150 route 0 1;
#X obj 72 119 pack f f;
#X obj 72 50 - 18;
#X connect 0 0 9 0;
#X connect 2 0 8 0;
#X connect 3 0 1 0;
#X connect 4 0 1 0;
#X connect 5 0 3 0;
#X connect 6 0 4 0;
#X connect 7 0 5 0;
#X connect 7 1 6 0;
#X connect 8 0 7 0;
#X connect 9 0 5 1;
#X connect 9 0 6 1;
#X connect 9 0 8 1;
#X restore 298 429 pd processRev-\$0;
#X obj 29 41 pack f f f;
#X obj 29 84 route 1;
#X obj 29 105 unpack f f;
#X msg 29 63 \$3 \$2 \$1;
#X obj 45 198 moses 7;
#X obj 84 218 moses 10;
#X obj 129 238 moses 16;
#X obj 176 258 moses 19;
#X obj 221 278 moses 25;
#X obj 266 298 moses 28;
#X obj 311 318 moses 34;
#X obj 356 338 moses 37;
#X obj 402 388 - 27;
#X connect 0 0 13 0;
#X connect 0 1 13 1;
#X connect 0 2 13 2;
#X connect 1 0 4 0;
#X connect 3 0 7 0;
#X connect 4 0 6 0;
#X connect 5 0 1 1;
#X connect 5 0 3 1;
#X connect 5 0 9 1;
#X connect 5 0 12 1;
#X connect 7 0 6 0;
#X connect 9 0 6 0;
#X connect 10 0 8 0;
#X connect 11 0 10 1;
#X connect 12 0 6 0;
#X connect 13 0 16 0;
#X connect 14 0 15 0;
#X connect 15 0 17 0;
#X connect 15 1 5 0;
#X connect 16 0 14 0;
#X connect 16 0 10 0;
#X connect 17 0 1 0;
#X connect 17 1 18 0;
#X connect 18 1 19 0;
#X connect 19 0 9 0;
#X connect 19 1 20 0;
#X connect 20 1 21 0;
#X connect 21 0 12 0;
#X connect 21 1 22 0;
#X connect 22 1 23 0;
#X connect 23 0 25 0;
#X connect 23 1 24 0;
#X connect 25 0 3 0;
